# xmcd CD database file
#
# Track frame offsets:
#	150
#	21013
#	41224
#	63718
#	84904
#	106815
#	124691
#	147896
#	161964
#	180917
#	204467
#	226318
#	245154
#	265887
#	291403
#
# Disc length: 4089 seconds
#
# Revision: 41
# Processed by: cddbd v1.5.2PL0 Copyright (c) Steve Scherf et al.
# Submitted via: CDex 1.70beta3
#
DISCID=d80ff70f
DTITLE=SOUTHERN ALL STARS - 海のYeah!! [CD2: SUNNY SIDE)
DYEAR=1998
DGENRE=J-Pop
TTITLE0=真夏の果実
TTITLE1=YOU
TTITLE2=シュラバ★ラ★バンバ SHULABA-LA-BAMBA
TTITLE3=涙のキッス
TTITLE4=さよならベイビー
TTITLE5=エロティカ・セブン EROTICA SEVEN
TTITLE6=素敵なバーディー (NO NO BIRDY)
TTITLE7=そんなヒロシに騙されて
TTITLE8=マンピーのG★SPOT
TTITLE9=あなただけを ～Summer Heartbreak～
TTITLE10=MOON LIGHT LOVER
TTITLE11=太陽は罪な奴
TTITLE12=恋のジャック・ナイフ
TTITLE13=愛の言霊 ～Spiritual Message～
TTITLE14=平和の琉歌
EXTD=YEAR: 1998
EXTT0=
EXTT1=
EXTT2=
EXTT3=
EXTT4=
EXTT5=
EXTT6=
EXTT7=
EXTT8=
EXTT9=
EXTT10=
EXTT11=
EXTT12=
EXTT13=
EXTT14=
PLAYORDER=
